<svg width="184" height="44" viewBox="0 0 184 44" fill="none" xmlns="http://www.w3.org/2000/svg" class="ppLogo"><path d="M46.0709 30.6537V10.3628C46.0709 9.90719 46.3084 9.66434 46.7515 9.66434H50.6927C53.449 9.66434 56.8272 9.66434 59.4343 11.362C62.1318 13.1221 63.8209 16.6099 63.8209 20.5511C63.8209 24.1291 62.3986 27.2237 60.1171 29.1041C57.3902 31.3476 54.4281 31.3476 50.9007 31.3476H46.7515C46.3061 31.3476 46.0709 31.1047 46.0709 30.6491V30.6537ZM51.9092 28.0147C56.9764 28.0147 59.9408 26.1344 59.9408 20.5534C59.9408 15.6408 57.0375 13.062 52.2959 13.062C51.3778 13.062 50.6362 13.062 49.8357 13.092V28.0147H51.9092Z" fill="#003087"></path><path d="M65.1549 23.3427C65.1549 18.4903 68.3544 14.8799 73.096 14.8799C78.0751 14.8799 80.7116 18.6707 80.7116 23.3126V23.6156C80.7116 24.0713 80.4154 24.3141 79.9993 24.3141L68.7682 24.2841C69.0056 26.893 70.7241 28.7734 73.243 28.7734C74.7535 28.7734 75.8207 28.1975 76.5036 27.2561C76.741 26.9531 76.9784 26.8005 77.3334 26.8005H79.5855C79.9699 26.8005 80.2367 26.9832 80.2367 27.226C80.2367 27.3162 80.2367 27.4088 80.0287 27.832C78.9614 30.0154 76.6212 31.8356 73.1526 31.8356C68.2934 31.8356 65.1527 28.3177 65.1527 23.3427H65.1549ZM77.0983 21.6451C76.8608 19.4617 75.3798 17.764 73.0689 17.764C70.758 17.764 69.1866 19.1286 68.8903 21.6451H77.0983Z" fill="#003087"></path><path d="M86.6697 30.8041L81.3062 16.4573C81.1886 16.1242 81.157 16.0317 81.157 15.9415C81.157 15.6084 81.3944 15.4257 81.7788 15.4257H84.2977C84.6821 15.4257 84.9489 15.6385 85.0688 16.0016L86.9071 21.733C87.4995 23.5833 87.9155 24.6449 88.6255 26.9485H88.6843C89.3355 24.7351 89.6928 23.8539 90.4932 21.3675L92.2117 15.9993C92.3293 15.6362 92.5961 15.4234 92.9827 15.4234H95.4135C95.7979 15.4234 96.0059 15.6061 96.0059 15.9392C96.0059 16.0294 95.9765 16.1219 95.8883 16.3948L90.4661 30.8018C90.3168 31.1973 90.0817 31.3476 89.695 31.3476H87.443C87.0586 31.3476 86.8211 31.1649 86.6719 30.8018L86.6697 30.8041Z" fill="#003087"></path><path d="M96.5666 23.3427C96.5666 18.4903 99.7661 14.8799 104.508 14.8799C109.487 14.8799 112.123 18.6707 112.123 23.3126V23.6156C112.123 24.0713 111.827 24.3141 111.411 24.3141L100.18 24.2841C100.417 26.893 102.136 28.7734 104.655 28.7734C106.165 28.7734 107.232 28.1975 107.915 27.2561C108.153 26.9531 108.39 26.8005 108.745 26.8005H110.997C111.382 26.8005 111.648 26.9832 111.648 27.226C111.648 27.3162 111.648 27.4088 111.44 27.832C110.373 30.0154 108.033 31.8356 104.564 31.8356C99.7051 31.8356 96.5644 28.3177 96.5644 23.3427H96.5666ZM108.51 21.6451C108.273 19.4617 106.791 17.764 104.481 17.764C102.17 17.764 100.598 19.1286 100.302 21.6451H108.51Z" fill="#003087"></path><path d="M114.199 30.6537V10.3628C114.199 9.90719 114.436 9.66434 114.88 9.66434H117.132C117.577 9.66434 117.812 9.90719 117.812 10.3628V30.6537C117.812 31.1094 117.575 31.3522 117.132 31.3522H114.88C114.434 31.3522 114.199 31.1094 114.199 30.6537Z" fill="#003087"></path><path d="M120.035 23.4052C120.035 18.4001 123.266 14.8822 128.155 14.8822C133.043 14.8822 136.304 18.4001 136.304 23.4052C136.304 28.4102 133.134 31.8379 128.096 31.8379C123.058 31.8379 120.035 28.29 120.035 23.4052ZM132.48 23.3751C132.48 20.2203 130.821 17.9768 128.094 17.9768C125.367 17.9768 123.736 20.2203 123.736 23.3751C123.736 26.5299 125.367 28.7433 128.094 28.7433C130.821 28.7433 132.48 26.6201 132.48 23.3751Z" fill="#003087"></path><path d="M138.468 36.1121V16.1242C138.468 15.6686 138.705 15.4257 139.148 15.4257H141.192C141.638 15.4257 141.873 15.6686 141.873 16.1242V17.5489C142.732 16.1843 144.48 14.91 147.207 14.91C151.474 14.91 154.409 18.3677 154.409 23.3427C154.409 28.3177 151.594 31.713 147.119 31.713C144.688 31.713 142.911 30.4988 142.052 29.1966H142.022C142.081 30.3184 142.081 31.2597 142.081 32.3213V36.1121C142.081 36.5678 141.844 36.8106 141.4 36.8106H139.148C138.703 36.8106 138.468 36.5678 138.468 36.1121ZM150.707 23.2826C150.707 20.2504 149.106 17.9445 146.382 17.9445C143.657 17.9445 141.907 20.2805 141.907 23.4029C141.907 26.5252 143.775 28.6808 146.382 28.6808C148.989 28.6808 150.707 26.3148 150.707 23.2826Z" fill="#003087"></path><path d="M155.596 23.3427C155.596 18.4903 158.795 14.8799 163.537 14.8799C168.516 14.8799 171.152 18.6707 171.152 23.3126V23.6156C171.152 24.0713 170.856 24.3141 170.44 24.3141L159.209 24.2841C159.447 26.893 161.165 28.7734 163.684 28.7734C165.194 28.7734 166.262 28.1975 166.945 27.2561C167.182 26.9531 167.419 26.8005 167.774 26.8005H170.026C170.411 26.8005 170.678 26.9832 170.678 27.226C170.678 27.3162 170.678 27.4088 170.47 27.832C169.402 30.0154 167.062 31.8356 163.593 31.8356C158.734 31.8356 155.594 28.3177 155.594 23.3427H155.596ZM167.539 21.6451C167.302 19.4617 165.821 17.764 163.51 17.764C161.199 17.764 159.627 19.1286 159.331 21.6451H167.539Z" fill="#003087"></path><path d="M173.138 30.6537V16.1242C173.138 15.6686 173.346 15.4257 173.789 15.4257H175.833C176.278 15.4257 176.514 15.6686 176.514 16.1242V16.4873C176.514 16.8505 176.514 17.2159 176.484 17.5489C177.018 15.9415 178.469 15.0325 180.247 15.0325C180.81 15.0325 181.165 15.2153 181.165 15.7611V17.9445C181.165 18.3076 181.016 18.5805 180.661 18.5805C180.423 18.5805 180.186 18.4903 179.713 18.4903C177.402 18.4903 176.749 20.5534 176.749 23.8284V30.6537C176.749 31.1094 176.511 31.3522 176.068 31.3522H173.816C173.371 31.3522 173.135 31.1094 173.135 30.6537H173.138Z" fill="#003087"></path><path d="M31.0619 10.9442C31.1607 5.81765 26.9309 1.8832 21.1148 1.8832H9.08474C8.80449 1.88325 8.53346 1.9833 8.3204 2.16538C8.10735 2.34745 7.96627 2.59959 7.92255 2.87641L3.10245 32.9954C3.08088 33.1318 3.08915 33.2713 3.12669 33.4043C3.16422 33.5373 3.23014 33.6605 3.31988 33.7656C3.40963 33.8706 3.52107 33.955 3.64655 34.0128C3.77202 34.0706 3.90854 34.1006 4.0467 34.1006H11.1737L10.0599 41.0761C10.0385 41.2125 10.0468 41.352 10.0844 41.4849C10.1219 41.6178 10.1879 41.741 10.2776 41.846C10.3673 41.951 10.4787 42.0353 10.6042 42.0931C10.7296 42.1509 10.8661 42.1808 11.0042 42.1809H16.81C17.0902 42.1808 17.3399 42.0808 17.553 41.8987C17.7661 41.7166 17.8006 41.4645 17.8443 41.1877L19.5483 31.1604C19.592 30.8835 19.733 30.5247 19.9461 30.3426C20.1591 30.1604 20.345 30.0603 20.6253 30.0602H24.1784C29.874 30.0602 34.7068 26.0117 35.5904 20.3811C36.2155 16.3838 34.5019 12.7475 31.0619 10.9442Z" fill="#001C64"></path><path d="M12.7155 22.9938L10.9404 34.2495L9.82674 41.3102C9.80525 41.4466 9.81357 41.5861 9.85115 41.719C9.88872 41.8519 9.95464 41.9751 10.0444 42.0801C10.1341 42.1851 10.2455 42.2694 10.371 42.3272C10.4964 42.385 10.6329 42.4149 10.771 42.415H16.9152C17.1955 42.4149 17.4665 42.3148 17.6796 42.1328C17.8926 41.9507 18.0337 41.6986 18.0774 41.4218L19.6962 31.1602C19.7398 30.8833 19.8808 30.631 20.0939 30.4489C20.307 30.2667 20.5781 30.1666 20.8584 30.1665H24.4753C30.171 30.1665 35.0038 26.0115 35.8873 20.3809C36.5139 16.384 34.5019 12.7475 31.0619 10.9442C31.0535 11.3699 31.0164 11.7948 30.9505 12.2154C30.0674 17.8456 25.2337 22.001 19.5385 22.001H13.8777C13.5974 22.0011 13.3264 22.1012 13.1134 22.2832C12.9003 22.4653 12.7592 22.717 12.7155 22.9938Z" fill="#0070E0"></path><path d="M10.9404 34.2495L3.79121 34.2494C3.65307 34.2495 3.51656 34.2196 3.39109 34.1618C3.26561 34.104 3.15416 34.0197 3.0644 33.9147C2.97465 33.8097 2.90873 33.6865 2.87119 33.5536C2.83366 33.4206 2.82539 33.2811 2.84696 33.1447L7.66707 2.57842C7.71079 2.30159 7.85186 2.04945 8.06492 1.86738C8.27797 1.68531 8.54901 1.58525 8.82926 1.58521H21.1149C26.931 1.58521 31.1607 5.81765 31.0619 10.9442C29.6144 10.1854 27.9144 9.75115 26.0513 9.75115H15.8085C15.5282 9.75121 15.2571 9.85134 15.0441 10.0335C14.831 10.2157 14.69 10.4679 14.6463 10.7448L12.7155 22.9938L10.9404 34.2495Z" fill="#003087"></path></svg>